<svg width="121" height="121" viewBox="0 0 121 121" fill="none" xmlns="http://www.w3.org/2000/svg">
<g id="Ind_Animal">
<rect id="Rectangle 249" x="60.7632" y="3.53529" width="80" height="80" rx="7.5" transform="rotate(45.6723 60.7632 3.53529)" fill="#F06040" stroke="black" stroke-width="5"/>
<g id="Group">
<path id="Vector" d="M75.0359 69.4138L74.8977 68.953L74.6212 68.2156L74.4368 67.7548L73.9299 66.8331L73.2387 65.9575L72.317 65.128L71.257 64.1602L70.3814 63.3307L69.5519 62.409L68.8607 61.4873L68.2155 60.5195L67.5242 59.2292L67.1095 58.3536L66.6025 57.3858L65.9573 56.3259L65.22 55.3581L64.7131 54.8512L64.2061 54.3903L63.5149 53.8834L62.6854 53.5147L61.6254 53.1461L60.5655 53.0078H59.4595L58.3995 53.1461L56.8788 53.6991L55.4041 54.7129L54.4363 55.6807L53.8372 56.6024L53.2381 57.6623L52.4547 59.2753L51.7173 60.7039L50.8878 61.8099L49.874 63.1003L46.8785 65.8653L46.602 66.0957L45.9107 67.0635L45.3577 68.1695L45.0351 69.5521L44.8508 70.7963L44.8047 72.1789L44.9429 73.1005L45.3577 74.3909L45.9568 75.5891L46.602 76.4186L47.4315 77.2481L48.5375 77.9855L49.8279 78.5846L50.7956 78.815L52.2703 78.8611L53.6989 78.5385L54.5745 78.1237L54.9432 77.8472L55.7727 77.3864L56.5562 76.9255L57.2474 76.5108L57.9848 76.1882L58.5839 75.9117L59.2751 75.7273L60.0125 75.6813L60.8881 75.8195L61.5333 75.9578L62.5932 76.4647L63.8836 77.1099L64.9435 77.8011L65.9113 78.3541L66.879 78.7689L67.8007 78.9532L68.5841 78.9993L69.2293 78.9532L70.2432 78.6767L71.5335 78.0776L72.4552 77.4325L73.423 76.4647L74.1143 75.543L74.7134 74.2987L75.082 73.1005L75.2203 72.0867V71.0267L75.1742 70.4277L75.0359 69.4138Z" fill="black"/>
</g>
<g id="Group_2">
<path id="Vector_2" d="M71.3492 45.126C71.7615 41.228 69.8797 37.8336 67.146 37.5444C64.4124 37.2553 61.8621 40.1808 61.4497 44.0788C61.0374 47.9768 62.9192 51.3711 65.6528 51.6603C68.3865 51.9495 70.9368 49.024 71.3492 45.126Z" fill="black"/>
</g>
<g id="Group_3">
<path id="Vector_3" d="M54.3531 51.6392C57.0867 51.35 58.9685 47.9556 58.5562 44.0576C58.1439 40.1596 55.5935 37.2341 52.8599 37.5233C50.1262 37.8125 48.2444 41.2068 48.6568 45.1048C49.0691 49.0028 51.6194 51.9283 54.3531 51.6392Z" fill="black"/>
</g>
<g id="Group_4">
<path id="Vector_4" d="M80.4874 56.6762C81.334 52.8752 79.8452 49.3094 77.1622 48.7118C74.4791 48.1142 71.6177 50.7111 70.7711 54.5122C69.9246 58.3132 71.4133 61.879 74.0964 62.4766C76.7795 63.0741 79.6409 60.4772 80.4874 56.6762Z" fill="black"/>
</g>
<g id="Group_5">
<path id="Vector_5" d="M45.9239 62.4718C48.6069 61.8742 50.0957 58.3084 49.2492 54.5074C48.4026 50.7064 45.5412 48.1095 42.8581 48.707C40.1751 49.3046 38.6863 52.8704 39.5329 56.6714C40.3794 60.4725 43.2408 63.0694 45.9239 62.4718Z" fill="black"/>
</g>
</g>
</svg>
