<svg width="120" height="120" viewBox="0 0 120 120" fill="none" xmlns="http://www.w3.org/2000/svg">
<g id="Ind_Evacuation">
<rect id="Rectangle 248" x="3.53553" y="60" width="79.8528" height="79.8528" rx="7.5" transform="rotate(-45 3.53553 60)" fill="#F06040" stroke="black" stroke-width="5"/>
<path id="Evacuation" d="M77.4386 58.3765C77.7415 58.548 77.9755 58.8192 78.1009 59.1438C78.2264 59.4685 78.2355 59.8266 78.1266 60.1572L76.5078 65.3779C76.4449 65.5807 76.3404 65.7682 76.2011 65.9285C76.0617 66.0887 75.8905 66.2182 75.6984 66.3087C75.5087 66.3987 75.3013 66.4454 75.0913 66.4454C74.8814 66.4454 74.674 66.3987 74.4843 66.3087L66.1069 62.7068C65.8309 62.6028 65.5916 62.4198 65.4189 62.1807L63.0716 58.6598L61.4123 64.2852L66.633 71.408C66.7546 71.5518 66.843 71.7206 66.8919 71.9025C66.9409 72.0844 66.9492 72.2748 66.9163 72.4602L65.4594 85.3703C65.4202 85.7391 65.2452 86.0801 64.9684 86.327C64.6916 86.5738 64.3328 86.7089 63.962 86.7058H57.6486C57.4363 86.7079 57.226 86.6658 57.0309 86.5822C56.8358 86.4986 56.6603 86.3753 56.5154 86.2202C56.3761 86.0527 56.2721 85.8588 56.2095 85.6502C56.1469 85.4416 56.1271 85.2225 56.1512 85.006L57.3653 75.0503L52.8326 70.1129L48.8665 76.831L40.3272 86.2202C40.1903 86.3744 40.0219 86.4975 39.8335 86.5813C39.645 86.6651 39.4408 86.7075 39.2345 86.7058H39.194C38.767 86.6997 38.3597 86.5252 38.0609 86.2202L34.4995 82.1731C34.2532 81.9058 34.1099 81.5596 34.095 81.1964C34.0802 80.8332 34.1948 80.4766 34.4185 80.19L41.5413 71.327L44.091 64.0019L41.1771 62.0188C40.925 61.8494 40.7289 61.609 40.6136 61.328C40.4984 61.047 40.4691 60.7381 40.5296 60.4405L42.8364 49.1897C42.9067 48.8631 43.0763 48.5662 43.322 48.3398L48.6641 43.6452C49.9639 42.5148 51.5409 41.7504 53.2335 41.4304C54.9261 41.1104 56.6733 41.2462 58.2961 41.824L62.9907 43.5643C65.3532 44.4348 67.2838 46.1913 68.3732 48.4612L71.4895 55.0579L77.4386 58.3765ZM56.9606 34.5394C56.9606 33.1386 57.3759 31.7693 58.1542 30.6046C58.9324 29.4399 60.0385 28.5322 61.3326 27.9961C62.6267 27.4601 64.0508 27.3198 65.4246 27.5931C66.7984 27.8664 68.0604 28.5409 69.0509 29.5314C70.0414 30.5219 70.7159 31.7838 70.9892 33.1577C71.2624 34.5315 71.1222 35.9555 70.5861 37.2497C70.0501 38.5438 69.1423 39.6499 67.9776 40.4281C66.813 41.2063 65.4437 41.6217 64.0429 41.6217C62.1652 41.6196 60.365 40.8727 59.0373 39.545C57.7096 38.2172 56.9627 36.4171 56.9606 34.5394ZM97.512 55.9482C97.6765 56.0877 97.8087 56.2613 97.8994 56.457C97.9901 56.6526 98.0371 56.8657 98.0371 57.0814C98.0371 57.2971 97.9901 57.5102 97.8994 57.7059C97.8087 57.9016 97.6765 58.0752 97.512 58.2146L89.1751 65.6612C88.8919 65.8991 88.5332 66.0282 88.1633 66.0254C87.955 66.0243 87.7489 65.9831 87.5562 65.904C87.2869 65.7904 87.058 65.5984 86.8993 65.353C86.7405 65.1077 86.6592 64.8202 86.6659 64.528V62.1807H81.769C81.5722 62.1812 81.3772 62.1429 81.1953 62.0678C81.0134 61.9927 80.8481 61.8825 80.709 61.7433C80.5698 61.6041 80.4595 61.4389 80.3845 61.257C80.3094 61.075 80.271 60.8801 80.2716 60.6833V53.4795C80.271 53.2827 80.3094 53.0878 80.3845 52.9059C80.4595 52.724 80.5698 52.5587 80.709 52.4195C80.8481 52.2804 81.0134 52.1701 81.1953 52.095C81.3772 52.02 81.5722 51.9816 81.769 51.9821H86.6659V49.6348C86.6592 49.3426 86.7405 49.0552 86.8993 48.8098C87.058 48.5644 87.2869 48.3724 87.5562 48.2589C87.8204 48.1373 88.1143 48.0956 88.4019 48.1387C88.6895 48.1818 88.9582 48.308 89.1751 48.5017L97.512 55.9482Z" fill="black"/>
</g>
</svg>
