<svg width="125" height="120" viewBox="0 0 125 120" fill="none" xmlns="http://www.w3.org/2000/svg">
<g id="Ind_Traffic">
<g id="Group 8584">
<rect id="Rectangle 249" x="60.5234" width="84.6088" height="84.6088" rx="10" transform="rotate(45.6723 60.5234 0)" fill="#F06040"/>
<path id="Vector" d="M114.482 52.8036L70.4027 8.72435C67.6747 6.1399 64.3723 4.84766 60.7828 4.84766C57.1933 4.84766 53.891 6.1399 51.1629 8.72435L7.08372 52.8036C4.49927 55.5316 3.20703 58.8339 3.20703 62.4234C3.20703 66.0129 4.49927 69.3152 7.08372 72.0433L51.1629 116.122C53.891 118.707 57.1933 119.999 60.7828 119.999C64.3723 119.999 67.6747 118.707 70.4027 116.122L114.482 72.0433C119.651 66.7308 119.651 57.9724 114.482 52.8036ZM112.328 66.3001C112.185 66.5872 112.041 66.8744 111.754 67.1616C110.892 68.1667 93.9499 85.2527 67.5311 111.672L66.9568 112.246L66.6696 112.533C64.9466 114.256 62.7929 115.117 60.6392 115.117C58.1983 115.117 56.1882 114.256 54.6089 112.533L10.5296 68.4538C7.22729 65.1514 7.22729 59.5518 10.5296 56.2494L42.1173 24.8054L54.7524 12.1702C55.4703 11.4523 56.1882 10.8781 57.3369 10.4473C57.9112 10.1602 58.3419 10.0166 58.7727 9.87297C59.6342 9.72939 60.3521 9.58579 61.2136 9.58579C61.5007 9.58579 61.7878 9.58579 62.075 9.58579H62.2186C62.3622 9.58579 62.6493 9.72943 62.9365 9.72943L63.2237 9.87297H63.3673C63.9416 10.0166 64.6595 10.3037 65.2338 10.5909C65.3774 10.5909 65.3774 10.7344 65.521 10.7344C65.521 10.7344 65.5209 10.7345 65.6645 10.8781C65.8081 11.0216 65.9517 11.0216 65.9517 11.1652L66.0953 11.3088L66.2389 11.4523L66.3824 11.596C66.6696 11.7395 66.8132 11.8831 67.1003 12.1702L67.9618 13.0318L68.8233 13.8932L110.462 55.5315L110.892 55.9623C111.61 56.6802 112.185 57.6852 112.615 58.4031C113.764 60.844 113.764 63.7156 112.328 66.3001Z" fill="#050404"/>
</g>
<g id="Group">
<g id="Group_2">
<path id="Vector_2" d="M70.9101 44.656C73.4945 44.656 75.6482 42.5023 75.6482 39.9178C75.6482 37.3334 73.4945 35.1797 70.9101 35.1797C68.3256 35.1797 66.1719 37.3334 66.1719 39.9178C66.1719 42.5023 68.3256 44.656 70.9101 44.656Z" fill="black"/>
<path id="Vector_3" d="M92.3062 73.3727L85.5579 68.2037L82.8299 66.1936C82.8299 66.1936 77.5175 62.7477 74.2151 65.6193C73.21 66.4808 72.3486 67.3423 71.4871 68.3473L61.58 60.3068L68.1847 47.3845L61.4365 37.6211H47.222L45.3554 47.0974L42.6274 44.8001C42.0531 44.3694 41.1916 44.3693 40.6173 44.9437C40.1865 45.518 40.1866 46.3795 40.7609 46.8103L46.0733 51.1177L42.771 54.7072L43.0581 67.3423L39.7558 79.6901C39.3251 81.1259 40.1865 82.7053 41.6223 82.9925C41.9095 82.9925 42.0531 83.1361 42.3402 83.1361C43.4889 83.1361 44.6375 82.2746 45.0683 81.1259L48.6578 68.0602L49.2321 58.1531L56.2675 66.4807L49.6628 78.8287C48.9449 80.1209 49.3757 81.8438 50.8115 82.5618C51.2422 82.8489 51.673 82.8489 52.1037 82.8489C53.1088 82.8489 53.9702 82.2746 54.5446 81.4131L62.8723 66.1936L59.5699 62.3169L69.7641 70.501C67.4668 73.6598 65.6003 77.1057 64.7388 79.2594C64.1645 80.8388 63.7337 81.8439 63.7337 82.131V82.2746H83.6914L92.737 73.6597L92.3062 73.3727ZM49.6628 47.6717L50.6679 42.6464H51.0986L54.1138 43.0771L49.6628 47.6717ZM57.7034 57.148L54.8317 54.8507L60.1442 52.5535L57.7034 57.148Z" fill="black"/>
</g>
</g>
</g>
</svg>
