<svg width="121" height="121" viewBox="0 0 121 121" fill="none" xmlns="http://www.w3.org/2000/svg">
<g id="Ind_Flooding">
<rect id="Rectangle 249" x="60.7632" y="3.53529" width="80" height="80" rx="7.5" transform="rotate(45.6723 60.7632 3.53529)" fill="#F06040" stroke="black" stroke-width="5"/>
<path id="Vector" d="M31.3414 68.8868C31.6599 68.8868 31.9783 68.7594 32.2331 68.5047L35.0992 66.0207C35.6724 65.5112 36.4367 65.2564 37.201 65.2564C37.9653 65.2564 38.7296 65.5112 39.3029 66.0207L40.8951 67.3582C41.9779 68.2499 43.3154 68.7594 44.844 68.7594C46.3726 68.7594 47.7101 68.2499 48.7929 67.3582L50.3852 65.957C50.9584 65.4475 51.7227 65.1927 52.487 65.1927C53.2513 65.1927 54.0156 65.4475 54.5888 66.0207L56.1811 67.3582C57.2638 68.2499 58.665 68.7594 60.1299 68.7594C61.5948 68.7594 62.9961 68.2499 64.0788 67.3582L65.6711 65.957C66.2443 65.4475 67.0086 65.1927 67.7729 65.1927C68.5372 65.1927 69.3015 65.4475 69.8747 65.957L71.467 67.3582C72.5498 68.2499 73.951 68.7594 75.4159 68.7594C76.9445 68.7594 78.282 68.2499 79.3647 67.3582L80.957 65.957C81.5303 65.4475 82.2946 65.1927 83.0588 65.1927C83.8231 65.1927 84.5874 65.4475 85.1607 65.957L88.0268 68.441C88.2815 68.6957 88.6 68.8231 88.9185 68.8231C89.3006 68.8231 89.7464 68.632 90.0012 68.3136C90.256 68.0588 90.3834 67.6767 90.3197 67.2945C90.3197 66.9124 90.1286 66.5939 89.8101 66.3392L87.0714 63.9189C85.9887 62.9635 84.5874 62.454 83.1225 62.454C81.6576 62.454 80.2564 62.9635 79.1737 63.9189L77.5814 65.3201C77.0719 65.7659 76.3076 66.0207 75.4796 66.0207C74.7153 66.0207 73.951 65.7659 73.3778 65.2564L71.7855 63.9189C70.7027 62.9635 69.3015 62.454 67.8366 62.454C67.3908 62.454 66.8812 62.5177 66.4354 62.6451L66.8175 57.9956C69.4289 56.7854 69.62 53.155 70.1295 49.3972C70.7664 44.8115 72.3587 32.2643 72.3587 32.2643C72.4861 31.1178 71.7218 30.1624 70.5753 30.0351C69.4289 29.9077 68.4735 30.672 68.3461 31.8184L67.2634 40.9263C67.1997 41.2447 66.9449 41.4995 66.6265 41.4995H66.5628C66.2443 41.4995 65.9259 41.1811 65.9896 40.8626L66.4991 29.0797C66.5628 27.9332 65.6711 26.9779 64.5883 26.9779C63.5056 26.9142 62.5502 27.8059 62.4865 28.8886L61.977 40.6715C61.977 40.99 61.6585 41.3084 61.3401 41.2447C61.0216 41.2447 60.7669 40.99 60.7669 40.6715L59.8115 26.9142C59.7478 25.7677 58.7924 24.9397 57.646 25.0034C56.4995 25.0671 55.6715 26.0225 55.7352 27.1689L56.5632 40.2894C56.5632 40.6715 56.3085 40.99 55.9263 40.9263H55.7352C55.4168 40.9263 55.2257 40.6715 55.162 40.4168L53.315 29.6529C53.1239 28.5702 52.0411 27.8059 50.9584 27.9969C49.8756 28.188 49.1113 29.2708 49.3024 30.3535C49.3024 30.3535 50.8947 39.1429 51.1495 40.99C51.4042 42.9007 51.5316 43.9198 51.5953 45.6395C51.659 46.5948 50.831 47.168 49.9393 46.2764C49.9393 46.2764 48.2196 44.1745 47.2006 43.1555C46.1815 42.1364 45.0988 41.7543 44.0797 42.4549C42.997 43.1555 42.6785 44.6204 43.4428 45.6395C43.4428 45.6395 47.8375 52.8366 50.5125 55.8301C51.3405 56.7854 52.4233 57.7408 53.5697 58.1867L53.9519 62.6451C53.506 62.5177 53.0602 62.454 52.6144 62.454C51.1495 62.454 49.7482 62.9635 48.6655 63.9189L47.0732 65.3201C46.5637 65.7659 45.7994 66.0207 45.0351 66.0207C44.2071 66.0207 43.5065 65.7659 42.9333 65.2564L41.2136 63.9189C40.1308 62.9635 38.7296 62.454 37.2647 62.454C35.7998 62.454 34.3986 62.9635 33.3159 63.9189L30.4497 66.4029C30.195 66.6576 30.0039 66.9761 30.0039 67.3582C30.0039 67.7404 30.0676 68.1225 30.3224 68.3773C30.5771 68.6957 30.9593 68.8868 31.3414 68.8868Z" fill="black"/>
<path id="Vector_2" d="M87.0741 72.0079C85.9914 71.0525 84.5902 70.543 83.1253 70.543C81.6604 70.543 80.2591 71.0525 79.1764 72.0079L77.5841 73.4091C77.0746 73.8549 76.3103 74.1097 75.4823 74.1097C74.718 74.1097 73.9537 73.8549 73.3805 73.3454L71.7882 72.0079C70.7054 71.0525 69.3042 70.543 67.8393 70.543C66.3744 70.543 65.0369 71.0525 63.8904 72.0079L62.2345 73.4091C61.7249 73.8549 60.9606 74.1097 60.1963 74.1097C59.3684 74.1097 58.6678 73.8549 58.0945 73.3454L56.5022 72.0079C55.3558 71.0525 54.0183 70.543 52.5534 70.543C51.0885 70.543 49.6873 71.0525 48.6045 72.0079L47.0122 73.4091C46.5027 73.8549 45.7384 74.1097 44.9741 74.1097C44.1461 74.1097 43.4455 73.8549 42.8723 73.3454L41.28 72.0079C40.1972 71.0525 38.796 70.543 37.3311 70.543C35.8662 70.543 34.465 71.0525 33.3823 72.0079L30.5162 74.4918C30.2614 74.7466 30.0703 75.0651 30.0703 75.4472C30.0703 75.8294 30.134 76.2115 30.3888 76.4663C30.6435 76.7847 31.0257 76.9758 31.4715 76.9758C31.79 76.9758 32.1084 76.8484 32.3632 76.5937L35.2293 74.1097C35.8025 73.6002 36.5668 73.3454 37.3311 73.3454C38.0954 73.3454 38.8597 73.6002 39.4329 74.1097L41.0252 75.4472C42.108 76.3389 43.4455 76.8484 44.9741 76.8484C46.5027 76.8484 47.8402 76.3389 48.923 75.4472L50.5153 74.046C51.0885 73.5365 51.8528 73.2817 52.6171 73.2817C53.3814 73.2817 54.1457 73.5365 54.7189 74.1097L56.3112 75.4472C57.3939 76.3389 58.7951 76.8484 60.26 76.8484C61.7249 76.8484 63.1262 76.3389 64.2089 75.4472L65.8012 74.046C66.3744 73.5365 67.1387 73.2817 67.903 73.2817C68.6673 73.2817 69.4316 73.5365 70.0048 74.046L71.5971 75.4472C72.6799 76.3389 74.0811 76.8484 75.546 76.8484C77.0746 76.8484 78.4121 76.3389 79.4949 75.4472L81.0871 74.046C81.6604 73.5365 82.4247 73.2817 83.1889 73.2817C83.9532 73.2817 84.7175 73.5365 85.2908 74.046L88.1569 76.53C88.4116 76.7847 88.7301 76.9121 89.0486 76.9121C89.4307 76.9121 89.8765 76.721 90.1313 76.4026C90.3861 76.1478 90.5135 75.7657 90.4498 75.3835C90.4498 75.0014 90.2587 74.6829 89.9402 74.4281L87.0741 72.0079Z" fill="black"/>
<path id="Vector_3" d="M87.0714 80.0313C85.925 79.0759 84.5238 78.5664 83.1225 78.5664C81.6576 78.5664 80.2564 79.0759 79.1737 80.0313L77.5814 81.4325C77.0719 81.8784 76.3076 82.1331 75.4796 82.1331C74.7153 82.1331 73.951 81.8784 73.3778 81.3688L71.7855 80.0313C70.7027 79.0759 69.2378 78.5664 67.8366 78.5664C66.3717 78.5664 65.0342 79.0759 63.8877 80.0313L62.2318 81.4325C61.7222 81.8784 60.9579 82.1331 60.1936 82.1331C59.3656 82.1331 58.665 81.8784 58.0918 81.3688L56.4995 80.0313C55.3531 79.0759 54.0156 78.5664 52.5507 78.5664C51.0858 78.5664 49.6846 79.0759 48.6018 80.0313L47.0095 81.4325C46.5 81.8784 45.7357 82.1331 44.9714 82.1331C44.1434 82.1331 43.4428 81.8784 42.8696 81.3688L41.2773 80.0313C40.1308 79.0759 38.7296 78.5664 37.2647 78.5664C35.7998 78.5664 34.3986 79.0759 33.3159 80.0313L30.4497 82.5153C30.195 82.77 30.0039 83.0885 30.0039 83.4706C30.0039 83.8528 30.0676 84.2349 30.3224 84.4897C30.5771 84.8082 30.9593 84.9992 31.4051 84.9992C31.7236 84.9992 32.042 84.8719 32.2968 84.6171L35.1629 82.1331C35.7361 81.6236 36.5004 81.3688 37.2647 81.3688C38.029 81.3688 38.7933 81.6236 39.3665 82.1331L40.9588 83.4706C42.0416 84.3623 43.3791 84.8719 44.9077 84.8719C46.4363 84.8719 47.7738 84.3623 48.8566 83.4706L50.4488 82.0694C51.0221 81.5599 51.7864 81.3051 52.5507 81.3051C53.315 81.3051 54.0793 81.5599 54.6525 82.1331L56.2448 83.4706C57.3275 84.3623 58.7287 84.8719 60.1936 84.8719C61.6585 84.8719 63.0597 84.3623 64.1425 83.4706L65.7348 82.0694C66.308 81.5599 67.0723 81.3051 67.8366 81.3051C68.6009 81.3051 69.3652 81.5599 69.9384 82.0694L71.5307 83.4706C72.6135 84.3623 74.0147 84.8719 75.4796 84.8719C77.0082 84.8719 78.3457 84.3623 79.4284 83.4706L81.0207 82.0694C81.5939 81.5599 82.3582 81.3051 83.1225 81.3051C83.8868 81.3051 84.6511 81.5599 85.2244 82.0694L88.0905 84.5534C88.3452 84.8082 88.6637 84.9355 88.9821 84.9355C89.3643 84.9355 89.8101 84.7445 90.0649 84.426C90.3197 84.1712 90.4471 83.7891 90.3834 83.407C90.3834 83.0248 90.1923 82.7063 89.8738 82.4516L87.0714 80.0313Z" fill="black"/>
</g>
</svg>
