<svg width="121" height="121" viewBox="0 0 121 121" fill="none" xmlns="http://www.w3.org/2000/svg">
<g id="Ind_Fire">
<rect id="Rectangle 250" x="60.7632" y="4.04701" width="80" height="80" rx="7.5" transform="rotate(45.6723 60.7632 4.04701)" fill="#F06040" stroke="black" stroke-width="5"/>
<path id="Vector" fill-rule="evenodd" clip-rule="evenodd" d="M46.6209 50.9997C41.2029 41.9696 50.4336 38.3576 50.233 33.7422C54.6477 42.5716 46.0189 43.575 46.6209 50.9997Z" fill="black"/>
<path id="Vector_2" fill-rule="evenodd" clip-rule="evenodd" d="M44.4151 54.2107C45.0171 58.2241 46.6224 61.8361 51.0371 64.0435C45.8197 55.0134 48.2278 45.7826 54.8498 41.9699C54.2478 43.1739 53.4452 45.7826 55.2512 46.9866C60.6692 41.1672 62.0739 31.9365 60.8699 24.5117C67.6926 31.1338 71.5054 40.3646 67.0906 48.592C64.0806 54.4114 68.8967 60.0301 71.5054 48.592C83.5455 60.0301 83.1441 80.097 64.6826 84.5117C66.288 82.505 76.1207 73.2743 66.288 62.8395C67.492 71.0669 60.8699 71.0669 61.8732 79.0937C56.6559 70.2642 67.8933 69.8629 58.2612 57.0201C60.6692 67.6555 45.0171 71.8696 56.0538 84.3111C39.599 80.8997 38.1943 65.6488 44.4151 54.2107Z" fill="black"/>
</g>
</svg>
