<svg width="121" height="121" viewBox="0 0 121 121" fill="none" xmlns="http://www.w3.org/2000/svg">
<g id="Ind_PublicSafety">
<g id="Group">
<rect id="Rectangle 249" x="60.7632" y="3.53529" width="80" height="80" rx="7.5" transform="rotate(45.6723 60.7632 3.53529)" fill="#F06040" stroke="black" stroke-width="5"/>
<path id="Vector" d="M75.4049 66.5352H73.4813H46.5501H44.6264C41.4524 66.5352 38.8555 69.1321 38.8555 72.3061V78.0771C38.8555 79.1351 39.7211 80.0007 40.7791 80.0007H79.2522C80.3102 80.0007 81.1759 79.1351 81.1759 78.0771V72.3061C81.1759 69.1321 78.5789 66.5352 75.4049 66.5352Z" fill="black"/>
<path id="Vector_2" d="M46.5508 64.6112H73.482V54.9929C73.482 47.5676 67.4417 41.5273 60.0164 41.5273C52.5911 41.5273 46.5508 47.5676 46.5508 54.9929V64.6112ZM60.0164 47.2983C61.0744 47.2983 61.94 48.164 61.94 49.222C61.94 50.28 61.0744 51.1456 60.0164 51.1456C57.9003 51.1456 56.1691 52.8769 56.1691 54.9929C56.1691 56.0509 55.3034 56.9166 54.2454 56.9166C53.1874 56.9166 52.3217 56.0509 52.3217 54.9929C52.3217 50.7417 55.7651 47.2983 60.0164 47.2983Z" fill="black"/>
<path id="Vector_3" d="M61.9411 35.7561V31.9087C61.9411 29.3657 58.0938 29.3618 58.0938 31.9087V35.7561C58.0938 38.2991 61.9411 38.303 61.9411 35.7561Z" fill="black"/>
<path id="Vector_4" d="M83.0764 53.0469H79.2291C76.686 53.0469 76.6821 56.8942 79.2291 56.8942H83.0764C85.6194 56.8942 85.6233 53.0469 83.0764 53.0469Z" fill="black"/>
<path id="Vector_5" d="M74.944 42.7336L77.6641 40.0135C79.4646 38.213 76.7426 35.4949 74.944 37.2935L72.224 40.0135C70.4234 41.8141 73.1435 44.5341 74.944 42.7336Z" fill="black"/>
<path id="Vector_6" d="M45.0143 42.7626C46.7995 44.5478 49.5368 41.845 47.7344 40.0426L45.0143 37.3206C43.2138 35.522 40.4937 38.242 42.2943 40.0407L45.0143 42.7626Z" fill="black"/>
<path id="Vector_7" d="M40.7561 53.0938H36.9087C34.3657 53.0938 34.3618 56.9411 36.9087 56.9411H40.7561C43.2991 56.9411 43.303 53.0938 40.7561 53.0938Z" fill="black"/>
</g>
</g>
</svg>
