<svg width="121" height="121" viewBox="0 0 121 121" fill="none" xmlns="http://www.w3.org/2000/svg">
<g id="Ind_InfrastructureDamage">
<rect id="Rectangle 249" x="60.7632" y="3.53529" width="80" height="80" rx="7.5" transform="rotate(45.6723 60.7632 3.53529)" fill="#F06040" stroke="black" stroke-width="5"/>
<path id="Infrastructure Damage" fill-rule="evenodd" clip-rule="evenodd" d="M86.7514 50.3244L78.7312 43.7683V32.707C78.7312 32.2119 78.3262 31.8064 77.8312 31.8064H70.6984C70.2034 31.8064 69.7984 32.2114 69.7984 32.707V36.465L63.244 31.1066C61.4395 29.6311 58.9088 29.6311 57.1043 31.1066L50.6736 36.3641L50.5071 40.2606L60.3507 44.4082L54.439 57.4737L62.0138 68.9473L58.6408 71.1739L49.8369 57.8392L54.9575 46.5213L46.3487 42.8939L46.481 39.7907L45.1305 40.8949L33.5969 50.3244C33.058 50.7653 32.8635 51.4639 33.0979 52.1187C33.3317 52.7746 33.9243 53.1926 34.6201 53.1926H39.3563V76.3361C39.3563 78.3511 41.0051 80 43.0202 80H77.3276C79.3426 80 80.992 78.3511 80.992 76.3361V53.1932H85.7282C86.4246 53.1932 87.0172 52.7757 87.2504 52.1193C87.4843 51.4639 87.2903 50.7653 86.7514 50.3244Z" fill="black"/>
</g>
</svg>
