<svg width="101" height="101" viewBox="0 0 101 101" fill="none" xmlns="http://www.w3.org/2000/svg">
<g id="Tok_Ambulance">
<circle id="Ellipse 62" cx="50.1328" cy="50.3398" r="47.9295" fill="white" stroke="#0E1E25" stroke-width="4.14105"/>
<g id="Group 8588">
<path id="Vector" d="M20.2061 61.2892C20.1947 60.7618 20.1833 60.2344 20.1719 59.7069C20.3962 59.411 20.5555 59.1056 20.3131 58.7414C20.3257 51.4359 20.3978 44.1298 20.33 36.825C20.2845 31.9198 20.9293 31.1771 25.9279 31.1762C36.4615 31.1743 46.9951 31.1729 57.5286 31.1719C61.9771 31.1715 62.6387 31.821 62.6725 36.2143C62.6758 36.6459 62.6645 37.0779 62.6799 37.5091C62.6954 37.9535 62.7577 38.3871 63.3504 38.3943C63.4352 38.3999 63.5203 38.3878 63.6002 38.3589C63.6802 38.3299 63.7532 38.2847 63.8148 38.2261C63.8763 38.1675 63.9251 38.0967 63.9579 38.0183C63.9907 37.9399 64.007 37.8555 64.0055 37.7705C64.2116 36.0184 65.2282 35.1174 66.9544 35.1881C68.5756 35.2546 69.4109 36.2577 69.6107 37.8394C69.6396 38.0682 69.7647 38.4556 69.8928 38.4763C73.7236 39.0968 74.2575 42.6329 75.5651 45.2506C76.8789 47.8813 78.5423 49.5355 81.4612 49.8965C84.407 50.2608 85.5474 51.8826 85.2544 54.8757C85.0115 57.3562 85.2025 59.8786 85.1873 62.3824C85.1804 63.4944 84.9683 64.6311 83.5628 64.5132C81.8589 64.3702 81.4673 65.1377 81.1238 66.6601C80.2812 70.3935 77.0046 72.8004 73.1855 72.8342C71.3532 72.8948 69.5573 72.3137 68.1078 71.1912C66.6583 70.0688 65.6461 68.4755 65.2462 66.6864C64.8581 64.901 64.1152 64.5697 62.4865 64.5885C55.5092 64.669 48.5299 64.6529 41.552 64.5976C40.1535 64.5865 39.4822 64.8379 39.1136 66.424C38.1702 70.4836 35.0197 72.8482 31.1123 72.8362C27.1164 72.8237 23.9981 70.355 23.0843 66.1489C22.7614 64.6624 21.7589 64.0672 20.7793 63.2904C20.5882 62.6233 20.3972 61.9562 20.2061 61.2892ZM68.8337 64.0168C68.8052 66.8982 70.6797 69.0088 73.2414 68.9797C74.3677 68.922 75.4326 68.4484 76.2298 67.6506C77.027 66.8528 77.4998 65.7876 77.5567 64.6612C77.5414 63.4913 77.0696 62.3736 76.2419 61.5468C75.4141 60.7199 74.296 60.2492 73.1261 60.2352C70.8895 60.262 68.8532 62.056 68.8337 64.0168ZM62.5103 45.9775C62.5103 47.1653 62.5236 48.0254 62.5074 48.885C62.4771 50.4947 63.4532 50.7995 64.4184 49.9154C66.1982 48.2853 67.5625 48.6433 69.2736 50.0274C70.5595 51.0676 72.4577 50.794 73.6471 50.0386C74.8635 49.2659 73.3195 48.1278 73.0273 47.1533C72.7074 46.2652 72.3227 45.4019 71.8762 44.5703C70.6276 41.9166 68.2091 41.075 64.2437 41.8952C61.4229 42.4785 62.8557 44.7499 62.5103 45.9775ZM31.1388 60.2546C30.579 60.2179 30.0176 60.2974 29.49 60.4882C28.9624 60.679 28.4799 60.9768 28.073 61.3631C27.6661 61.7493 27.3435 62.2155 27.1255 62.7325C26.9074 63.2494 26.7987 63.8059 26.8061 64.3669C26.7715 64.9495 26.8545 65.5332 27.0503 66.0831C27.2461 66.633 27.5506 67.1378 27.9457 67.5675C28.3408 67.9971 28.8184 68.3428 29.35 68.5839C29.8816 68.825 30.4563 68.9566 31.0398 68.9707C31.6235 68.9682 32.201 68.8506 32.7392 68.6248C33.2775 68.399 33.7659 68.0693 34.1767 67.6547C34.5875 67.24 34.9126 66.7485 35.1333 66.2082C35.3541 65.6679 35.4662 65.0893 35.4634 64.5057C35.4445 63.3713 34.9805 62.2899 34.1715 61.4946C33.3625 60.6993 32.2733 60.2541 31.1388 60.2546Z" fill="#0E1E25"/>
<path id="Vector_2" d="M43.8513 45.2909V41.9922H40.0202V45.2909H36.668V49.0609H40.0202V52.3596H43.8513V49.0609H47.2035V45.2909H43.8513Z" fill="white"/>
<path id="Vector_3" d="M67.0076 43.0526C68.5343 42.8909 69.1433 43.657 69.1412 44.9939C69.1388 46.5562 68.0713 47.0705 66.7629 47.0641C66.4812 47.0894 66.1975 47.0525 65.9318 46.9559C65.666 46.8592 65.4249 46.7052 65.2253 46.5049C65.0258 46.3045 64.8729 46.0627 64.7773 45.7966C64.6818 45.5304 64.646 45.2466 64.6726 44.9651C64.6843 43.4093 65.69 42.9396 67.0076 43.0526Z" fill="#0E1E25"/>
</g>
</g>
</svg>
