<svg width="100" height="100" viewBox="0 0 100 100" fill="none" xmlns="http://www.w3.org/2000/svg">
<g id="Tok_WorkTruck">
<circle id="Ellipse 64" cx="50" cy="50" r="47.9295" fill="white" stroke="#0E1E25" stroke-width="4.14105"/>
<g id="Group 8591">
<path id="Vector" d="M21.2619 42.0294C21.8469 41.1314 22.8535 40.7119 22.8535 40.7119L25.3519 39.5762L30.3487 37.3049L40.3424 32.7624L50.336 28.2198C50.336 28.2198 58.666 24.3279 60.3297 23.6772C61.1602 23.3524 62.0578 25.2968 62.0578 25.2968C62.0578 25.2968 62.6366 26.6872 62.1467 27.3113C61.8155 27.7333 58.5127 29.1283 58.5127 29.1283L54.8786 30.9453V49.1156L51.2446 49.9415V54.5667H47.6105V50.8269L31.6999 54.5667H58.5061V38.2201C58.5061 37.2545 58.8896 36.3285 59.5724 35.6457C60.2552 34.963 61.1812 34.5794 62.1467 34.5794H69.4149C71.3971 34.5794 72.441 35.1939 73.0423 36.3964C76.6808 43.6645 78.5 47.2986 78.5 47.2986V52.7497V58.2008V61.8348C78.4965 62.3162 78.3028 62.7766 77.9612 63.1158C77.6196 63.4549 77.1577 63.6452 76.6764 63.6452H71.2319C71.2319 65.5729 70.4661 67.4215 69.1031 68.7846C67.7401 70.1476 65.8914 70.9134 63.9638 70.9134C62.0361 70.9134 60.1875 70.1476 58.8244 68.7846C57.4614 67.4215 56.6957 65.5729 56.6957 63.6452H42.1594C42.1594 65.5729 41.3937 67.4215 40.0306 68.7846C38.6676 70.1476 36.8189 70.9134 34.8913 70.9134C32.9637 70.9134 31.115 70.1476 29.752 68.7846C28.3889 67.4215 27.6232 65.5729 27.6232 63.6452H25.7995C25.3193 63.6435 24.8591 63.4524 24.519 63.1135C24.1788 62.7745 23.986 62.315 23.9825 61.8348V56.3771L22.1688 49.1123L21.2619 45.4799C21.2619 45.4799 20.4639 43.2545 21.2619 42.0294ZM71.2319 40.0305C70.7892 39.1451 70.4324 38.2267 69.4281 38.2267H63.9638C63.4841 38.2266 63.024 38.4163 62.6836 38.7542C62.3432 39.0921 62.1502 39.5509 62.1467 40.0305V45.4816C62.1502 45.9624 62.3427 46.4226 62.6828 46.7626C63.0228 47.1026 63.4829 47.2951 63.9638 47.2986H74.8725L71.2319 40.0305ZM63.9638 67.2793C64.6825 67.278 65.3847 67.0636 65.9816 66.6632C66.5785 66.2628 67.0433 65.6944 67.3171 65.0298C67.591 64.3653 67.6616 63.6345 67.5201 62.9298C67.3786 62.2251 67.0313 61.5782 66.5221 61.0709C66.013 60.5636 65.3648 60.2187 64.6596 60.0797C63.9545 59.9408 63.2239 60.0141 62.5604 60.2903C61.8968 60.5666 61.3301 61.0334 60.9319 61.6318C60.5337 62.2301 60.3218 62.9331 60.3231 63.6518C60.324 64.1291 60.4188 64.6015 60.6023 65.042C60.7857 65.4826 61.0541 65.8827 61.3922 66.2196C61.7302 66.5564 62.1313 66.8234 62.5726 67.0052C63.0138 67.187 63.4865 67.2802 63.9638 67.2793ZM34.8913 67.2793C35.6106 67.2806 36.3141 67.0684 36.9128 66.6696C37.5114 66.2708 37.9782 65.7033 38.2541 65.039C38.5299 64.3747 38.6025 63.6434 38.4625 62.9379C38.3224 62.2323 37.9762 61.5842 37.4676 61.0756C36.9589 60.5669 36.3108 60.2207 35.6053 60.0807C34.8997 59.9407 34.1685 60.0132 33.5042 60.2891C32.8399 60.5649 32.2724 61.0318 31.8735 61.6304C31.4747 62.229 31.2625 62.9325 31.2639 63.6518C31.2656 64.6134 31.6483 65.535 32.3282 66.2149C33.0081 66.8948 33.9298 67.2775 34.8913 67.2793Z" fill="#0E1E25"/>
<path id="Vector_2" d="M67.1047 41.3989C68.5317 41.2478 69.101 41.9638 69.0991 43.2135C69.0967 44.6738 68.0989 45.1545 66.8759 45.1485C66.6126 45.1722 66.3474 45.1377 66.099 45.0474C65.8506 44.957 65.6252 44.8131 65.4387 44.6258C65.2522 44.4386 65.1092 44.2125 65.0199 43.9638C64.9306 43.715 64.8972 43.4497 64.922 43.1865C64.933 41.7323 65.8731 41.2932 67.1047 41.3989Z" fill="#0E1E25"/>
</g>
</g>
</svg>
