<svg width="101" height="101" viewBox="0 0 101 101" fill="none" xmlns="http://www.w3.org/2000/svg">
<g id="Tok_Reporter">
<circle id="Ellipse 62" cx="50.6484" cy="50.2773" r="47.9295" fill="white" stroke="#0E1E25" stroke-width="4.14105"/>
<g id="Group 8586">
<path id="Vector" d="M79.9565 62.969C80.1661 67.0908 78.5199 69.8667 77.8685 73.329C77.7521 73.9473 77.482 74.3979 76.7552 74.3969C74.7023 74.394 72.6493 74.4157 70.5965 74.4018C69.5507 74.3948 69.7271 73.7328 69.8828 73.0386C70.2778 71.2774 70.7003 69.517 70.9621 67.7344C71.0447 67.1722 71.8191 66.1888 70.5707 65.9447C69.6382 65.7623 69.6593 66.6569 69.4668 67.2524C68.8617 69.1251 68.1702 70.9754 67.6737 72.8765C67.3676 74.0487 66.8007 74.449 65.6142 74.4333C61.5093 74.3791 57.402 74.3545 53.2986 74.4441C51.7288 74.4784 51.7741 73.78 52.0271 72.633C52.7687 69.2695 53.3964 65.8803 54.1779 62.5266C54.4738 61.2564 54.2263 60.604 52.9418 60.1393C47.3547 58.1183 42.8187 54.7605 39.9627 49.4275C39.4381 48.448 38.108 48.5937 38.108 48.5937C38.108 48.5937 33.919 49.3329 31.1647 50.0534C28.4979 50.751 25.382 50.0507 24.0753 47.445C23.8449 46.9854 23.5259 46.5239 24.1897 46.2417C24.9009 45.9394 25.5335 45.3636 26.4681 45.8489C30.1605 47.7663 32.1763 46.1515 34.4118 44.1583C38.2206 40.7622 38.6621 33.8228 34.9146 30.3592C33.2815 28.8498 32.0531 27.2919 29.3369 28.2994C28.062 28.7725 27.3295 28.04 26.8175 27.3651C26.0487 26.3518 27.3288 25.9893 27.8829 25.5882C28.9011 24.7949 30.1693 24.3916 31.4587 24.4511C32.7481 24.5106 33.9738 25.0289 34.9146 25.9127C34.9146 25.9127 53.3013 35.679 55.2796 38.5062C56.8179 40.7047 55.7885 43.6433 53.4623 45.1624C52.1181 46.0403 49.8933 47.0711 50.1172 48.2335C50.4348 49.8827 52.7313 50.4892 54.4309 51.0778C55.964 51.6673 57.3477 51.6858 59.237 51.9484C62.1176 52.3487 63.7799 52.1267 66.6628 52.5095C68.7513 52.7868 70.2136 53.0885 71.9771 53.4381C75.7422 54.1845 78.4947 56.2262 79.5949 59.9938C79.923 61.1173 79.8971 61.8 79.9565 62.969Z" fill="#0E1E25"/>
<path id="Vector_2" d="M59.4383 47.3572C57.9433 45.5281 57.4867 43.7676 57.4467 41.6454C57.357 36.8735 61.4925 32.481 66.2555 32.292C71.0228 32.1028 75.4466 35.8828 75.7595 40.8737C76.0936 46.2031 73.4925 50.0766 66.1459 50.5971C63.4478 50.4741 61.2792 49.6096 59.4383 47.3572Z" fill="#0E1E25"/>
<path id="Vector_3" d="M33.7861 36.9781C33.7861 37.2601 34.5039 41.2483 31.7398 41.5968C28.6284 41.9892 27.0366 40.2917 27.1898 37.83C27.3384 35.4431 28.5332 34.1835 30.7196 34.5235C31.9413 34.7137 32.9319 34.5235 33.7861 36.9781Z" fill="#0E1E25"/>
<path id="Vector_4" d="M22.2303 37.567C20.3234 37.3269 18.5489 37.0679 16.766 36.8947C15.9497 36.8154 15.592 36.5268 15.7035 35.6725C15.8093 34.8623 15.976 34.2707 17.0282 34.4277C18.7999 34.692 20.5828 34.8853 22.3643 35.0786C23.3052 35.1806 23.8615 35.4613 23.6691 36.6039C23.4931 37.6486 22.9203 37.7251 22.2303 37.567Z" fill="#0E1E25"/>
<path id="Vector_5" d="M19.5713 25.8711C21.5693 27.3777 23.5112 28.7373 25.3057 30.2694C25.7507 30.6492 24.9875 31.2673 24.6632 31.7065C24.273 32.2349 23.8026 32.0302 23.3793 31.7251C21.8505 30.6234 20.3259 29.5159 18.8054 28.4027C18.391 28.1003 17.9881 27.7495 18.3861 27.1989C18.7581 26.7362 19.1537 26.2931 19.5713 25.8711Z" fill="#0E1E25"/>
<path id="Vector_6" d="M17.5389 45.6234C16.665 45.6909 16.5919 45.0531 16.3969 44.5409C16.1684 43.9405 16.1773 43.4838 16.9222 43.2038C18.7417 42.5201 20.5463 41.7971 22.3358 41.0348C23.1021 40.7086 23.3774 41.1383 23.6038 41.6952C23.8052 42.1907 24.2787 42.8407 23.5364 43.1705C21.54 44.0574 19.4941 44.8326 17.5389 45.6234Z" fill="#0E1E25"/>
</g>
</g>
</svg>
