<svg width="101" height="101" viewBox="0 0 101 101" fill="none" xmlns="http://www.w3.org/2000/svg">
<g id="Tok_Inspector">
<circle id="Ellipse 62" cx="50.9648" cy="50.2773" r="47.9295" fill="white" stroke="#0E1E25" stroke-width="4.14105"/>
<g id="Group 8587">
<path id="Vector" d="M59.6645 38.2765C61.8428 33.613 59.8282 28.0666 55.1647 25.8882C50.5012 23.7098 44.9547 25.7244 42.7763 30.388C40.598 35.0515 42.6126 40.598 47.2761 42.7763C51.9396 44.9547 57.4861 42.9401 59.6645 38.2765Z" fill="#0E1E25"/>
<path id="Vector_2" d="M70.8306 55.4493C74.9147 55.4493 78.2134 52.1505 78.2134 48.0664C78.2134 43.9823 74.9147 40.6836 70.8306 40.6836C66.7465 40.6836 63.4478 43.9823 63.4478 48.0664C63.4478 50.4226 64.5997 52.5694 66.3276 53.8784L64.0237 59.0621L57.6357 59.2716C57.6357 59.2716 53.9181 52.9883 51.8237 49.5325C48.9963 44.9248 41.5611 39.8458 36.0109 44.7154C30.5654 49.5325 28.8898 61.4183 28.4709 69.9007C28.4186 71.0003 29.3087 71.9428 30.4083 71.9428H47.1636C48.2108 71.9428 49.101 71.0527 49.101 70.0055V61.6278L51.6143 65.8166C52.0332 66.5497 52.7139 67.1256 53.4469 67.4922C54.0752 67.754 54.7035 67.911 55.3842 67.911L66.8512 67.4922C69.2074 67.4398 71.04 65.4501 70.9353 63.0939C70.8829 61.1565 69.5216 59.5857 67.7413 59.1145L69.4168 55.2922C69.9404 55.3969 70.3593 55.4493 70.8306 55.4493ZM70.8306 44.1394C72.9774 44.1394 74.7576 45.8673 74.7576 48.0664C74.7576 50.2656 73.0297 51.9935 70.8306 51.9935C68.6838 51.9935 66.9035 50.2656 66.9035 48.0664C66.9035 45.8673 68.6838 44.1394 70.8306 44.1394Z" fill="#0E1E25"/>
</g>
</g>
</svg>
