<svg width="100" height="100" viewBox="0 0 100 100" fill="none" xmlns="http://www.w3.org/2000/svg">
<g id="Tok_AnimalControl">
<circle id="Ellipse 63" cx="50" cy="50" r="47.9295" fill="white" stroke="#0E1E25" stroke-width="4.14105"/>
<g id="Group 8589">
<path id="Vector" d="M70.0535 44.7715C71.867 44.5794 72.5904 45.4894 72.5879 47.0775C72.585 48.9334 71.3169 49.5443 69.7627 49.5366C69.4281 49.5668 69.0911 49.5229 68.7754 49.4081C68.4598 49.2933 68.1733 49.1104 67.9363 48.8724C67.6992 48.6344 67.5176 48.3471 67.4041 48.031C67.2906 47.7149 67.2481 47.3777 67.2796 47.0433C67.2936 45.1952 68.4883 44.6372 70.0535 44.7715Z" fill="#0E1E25"/>
<path id="Compound Path" d="M75.0299 37.7856C74.8911 37.4462 74.6511 37.1577 74.3426 36.9594C74.0342 36.7611 73.6721 36.6626 73.3057 36.6772H61.914C61.424 36.6772 60.9542 36.8718 60.6077 37.2183C60.2613 37.5647 60.0667 38.0346 60.0667 38.5245V52.2562H23.5515C23.3066 52.2476 23.0626 52.2895 22.8345 52.3793C22.6065 52.4691 22.3994 52.6048 22.2262 52.7781C22.0529 52.9514 21.9171 53.1585 21.8273 53.3865C21.7375 53.6145 21.6956 53.8586 21.7042 54.1035V64.4484C21.6956 64.6933 21.7375 64.9374 21.8273 65.1654C21.9171 65.3934 22.0529 65.6005 22.2262 65.7738C22.3994 65.9471 22.6065 66.0828 22.8345 66.1726C23.0626 66.2624 23.3066 66.3043 23.5515 66.2957H28.9703C29.348 67.6043 30.1408 68.7547 31.2293 69.5734C32.3177 70.3922 33.6428 70.8349 35.0048 70.8349C36.3669 70.8349 37.692 70.3922 38.7804 69.5734C39.8689 68.7547 40.6617 67.6043 41.0394 66.2957H61.8524C62.2301 67.6043 63.0229 68.7547 64.1114 69.5734C65.1998 70.3922 66.5249 70.8349 67.8869 70.8349C69.249 70.8349 70.5741 70.3922 71.6625 69.5734C72.751 68.7547 73.5438 67.6043 73.9215 66.2957H79.3403C79.5852 66.3043 79.8292 66.2624 80.0572 66.1726C80.2853 66.0828 80.4924 65.9471 80.6656 65.7738C80.8389 65.6005 80.9747 65.3934 81.0645 65.1654C81.1543 64.9374 81.1962 64.6933 81.1876 64.4484V53.4877C81.182 53.2569 81.1405 53.0284 81.0644 52.8104L75.0299 37.7856ZM35.0048 67.1578C34.4933 67.1578 33.9933 67.0061 33.568 66.7219C33.1427 66.4378 32.8112 66.0338 32.6155 65.5613C32.4197 65.0887 32.3685 64.5687 32.4683 64.067C32.5681 63.5653 32.8144 63.1045 33.1761 62.7428C33.5378 62.3811 33.9986 62.1348 34.5003 62.035C35.002 61.9352 35.522 61.9865 35.9946 62.1822C36.4671 62.3779 36.871 62.7094 37.1552 63.1347C37.4394 63.56 37.5911 64.0601 37.5911 64.5716C37.5911 65.2575 37.3186 65.9153 36.8336 66.4003C36.3486 66.8853 35.6908 67.1578 35.0048 67.1578ZM67.8869 67.1578C67.3754 67.1578 66.8754 67.0061 66.4501 66.7219C66.0248 66.4378 65.6933 66.0338 65.4976 65.5613C65.3018 65.0887 65.2506 64.5687 65.3504 64.067C65.4502 63.5653 65.6965 63.1045 66.0582 62.7428C66.4199 62.3811 66.8807 62.1348 67.3824 62.035C67.8841 61.9352 68.4041 61.9865 68.8766 62.1822C69.3492 62.3779 69.7531 62.7094 70.0373 63.1347C70.3215 63.56 70.4732 64.0601 70.4732 64.5716C70.4732 65.2575 70.2007 65.9153 69.7157 66.4003C69.2307 66.8853 68.5728 67.1578 67.8869 67.1578ZM66.1555 51.6404C65.2407 51.6404 64.4991 50.8988 64.4991 49.984V44.5524C64.4991 43.6376 65.2407 42.896 66.1555 42.896H72.1634C72.8511 42.896 73.4673 43.3209 73.7117 43.9637L75.7771 49.3952C76.1893 50.4793 75.3886 51.6404 74.2289 51.6404H73.5979C73.5979 51.6404 71.677 50.6458 70.4732 50.6388C69.24 50.6317 67.5315 51.6404 67.5315 51.6404H66.1555Z" fill="#0E1E25"/>
<path id="Compound Path_2" d="M26.5711 27.505C26.3262 27.4964 26.0821 27.5383 25.8541 27.6281C25.6261 27.7179 25.419 27.8537 25.2457 28.0269C25.0724 28.2002 24.9366 28.4073 24.8468 28.6353C24.7571 28.8633 24.7152 29.1074 24.7238 29.3523V50.0422C24.7152 50.2871 24.7571 50.5311 24.8468 50.7592C24.9366 50.9872 25.0724 51.1943 25.2457 51.3675C25.419 51.5408 25.6261 51.6766 25.8541 51.7664C26.0821 51.8562 26.3262 51.8981 26.5711 51.8895H57.1748C57.4197 51.8981 57.6638 51.8562 57.8918 51.7664C58.1198 51.6766 58.3269 51.5408 58.5002 51.3675C58.6735 51.1943 58.8092 50.9872 58.899 50.7592C58.9888 50.5311 59.0307 50.2871 59.0221 50.0422V29.3523C59.0307 29.1074 58.9888 28.8633 58.899 28.6353C58.8092 28.4073 58.6735 28.2002 58.5002 28.0269C58.3269 27.8537 58.1198 27.7179 57.8918 27.6281C57.6638 27.5383 57.4197 27.4964 57.1748 27.505H26.5711ZM34.6992 45.9165H31.0046V33.478H34.6992V45.9165ZM40.7338 45.9165H37.0391V33.478H40.7338V45.9165ZM46.7067 45.9165H43.0121V33.478H46.7067V45.9165ZM52.7413 45.9165H49.0467V33.478H52.7413V45.9165Z" fill="#0E1E25"/>
</g>
</g>
</svg>
