<svg width="100" height="101" viewBox="0 0 100 101" fill="none" xmlns="http://www.w3.org/2000/svg">
<g id="Tok_Police">
<circle id="Ellipse 62" cx="50" cy="50.418" r="47.9295" fill="white" stroke="#0E1E25" stroke-width="4.14105"/>
<g id="Group 8585">
<path id="Vector" d="M87.8959 50.6419C88.3392 50.5244 88.8079 50.5451 89.2391 50.7013C89.6703 50.8574 90.0436 51.1416 90.3089 51.5157C90.3224 51.6793 90.3358 51.8429 90.3492 52.0066C90.3513 53.5027 90.3534 54.9989 90.3555 56.495C90.1499 58.6173 90.1785 60.8815 87.3674 61.4245C85.7471 61.7517 84.1381 62.1683 82.5026 62.374C81.4489 62.5066 81.4831 63.2733 81.2098 63.9286C79.6438 67.6838 76.7637 69.6936 72.9633 69.5789C69.0398 69.4606 66.3717 67.4501 65.1047 63.7907C64.6789 62.5609 64.0571 62.3536 62.9517 62.3582C55.4746 62.3892 47.9971 62.4069 40.5203 62.3513C39.2263 62.3416 38.7101 62.7583 38.2632 63.9943C37.7113 65.6653 36.6329 67.1127 35.1895 68.1194C33.7461 69.1262 32.0154 69.6382 30.2566 69.5788C26.5452 69.5639 23.6219 67.6067 22.265 63.9522C21.8586 62.8575 21.4387 62.4878 20.2675 62.2915C17.3865 61.8086 15.0117 58.7279 15.0108 55.8623C15.0101 53.4529 14.9809 51.043 15.0216 48.6344C15.0679 45.8976 16.0592 44.5142 18.6999 44.1686C20.8358 43.8454 22.8402 42.9365 24.4908 41.5429C26.194 40.2178 28.0277 39.05 29.6574 37.643C33.7981 34.0678 38.3788 31.9505 43.9961 32.8112C45.8189 33.0905 47.0976 32.684 46.9607 30.4373C46.8825 29.1541 47.6423 28.6863 48.8563 28.7505C49.6854 28.8103 50.5177 28.8115 51.347 28.754C52.7701 28.6276 53.5943 29.0945 53.5569 30.646C53.5206 32.1582 54.08 33.0521 55.7557 33.3201C57.4242 33.5869 58.71 34.7808 60.0219 35.7975C60.8923 36.4369 61.7187 37.1341 62.4955 37.8844C67.1666 42.6397 72.6844 45.7273 79.3602 46.584C80.1666 47.4037 81.3266 47.2797 82.2785 47.4345C84.6649 47.8228 86.8343 49.6362 87.6747 51.3998L84.8653 51.5157C84.1015 51.5627 84.2944 52.052 84.4081 52.5047C84.4069 53.1692 84.4058 53.8338 84.4047 54.4984C84.3049 54.8816 84.409 55.1185 84.847 55.117C85.0167 55.2275 85.2115 55.2932 85.4134 55.3081C85.6153 55.3229 85.8177 55.2863 86.0016 55.2018C87.0043 56.0499 85.3966 58.3326 87.1749 58.2322C88.1418 58.1773 87.311 56.1402 87.3674 55.0012C87.3756 53.8697 87.3837 52.7383 87.3918 51.6068L87.8959 50.6419ZM49.2806 48.8644C44.131 48.8644 38.9812 48.8909 33.8319 48.8482C32.3068 48.8355 32.0609 49.2229 32.9511 50.4976C34.7569 53.0829 36.5242 55.698 38.2094 58.3627C38.7931 59.286 39.495 59.4744 40.4809 59.4708C47.7074 59.4443 54.9343 59.4138 62.1599 59.4957C63.5639 59.5117 64.0286 58.9558 64.2625 57.7363C64.7158 55.3733 65.1982 53.0126 65.7802 50.6787C66.1451 49.2155 65.699 48.8133 64.2316 48.8348C59.2489 48.908 54.2644 48.8629 49.2806 48.8644ZM36.2991 45.9005C37.7905 45.9005 39.2862 45.8287 40.7717 45.9211C42.1984 46.0098 42.9314 45.6555 42.8325 44.0284C42.7287 42.0423 42.7265 40.0521 42.8259 38.0658C42.8799 36.7706 42.4083 36.3787 41.1206 36.3287C36.6603 36.1556 31.5245 39.6085 29.7731 44.024C29.215 45.4312 29.8277 45.8693 31.0801 45.8882C32.8195 45.9143 34.5595 45.8948 36.2991 45.9005ZM58.4547 45.8905C60.2292 45.8905 61.5559 45.9046 62.8821 45.8842C63.4827 45.875 64.0673 45.742 64.2411 45.0458C64.3827 44.4786 63.9948 44.1051 63.6255 43.7804C62.2564 42.5768 60.7413 41.5121 59.5128 40.1813C56.4288 36.8406 52.6449 35.8826 48.2696 36.3202C47.0598 36.4413 46.4462 36.6177 46.5059 37.9868C46.5962 40.0557 46.5119 42.1317 46.5424 44.204C46.5503 44.7419 46.2893 45.4312 46.9875 45.7508C47.7414 46.096 48.2146 45.5941 48.6819 45.0911C49.8429 43.8417 51.6081 43.309 52.6924 44.3503C54.6017 46.1838 56.7276 45.852 58.4547 45.8905ZM73.2493 56.4853C72.3395 56.4729 71.4466 56.7309 70.6836 57.2266C69.9207 57.7223 69.322 58.4334 68.9636 59.2697C68.6053 60.106 68.5033 61.0299 68.6706 61.9242C68.8379 62.8185 69.267 63.6431 69.9034 64.2933C70.5399 64.9434 71.3551 65.39 72.2456 65.5764C73.1362 65.7627 74.0621 65.6805 74.9058 65.34C75.7496 64.9996 76.4732 64.4162 76.9851 63.664C77.4969 62.9118 77.7739 62.0245 77.7809 61.1147C77.7834 59.903 77.3098 58.7389 76.4622 57.873C75.6146 57.0071 74.4608 56.5087 73.2493 56.4853ZM34.9207 61.0072C34.878 59.7997 34.372 58.655 33.5078 57.8107C32.6436 56.9663 31.4874 56.4872 30.2793 56.4726C29.3676 56.4802 28.4787 56.7584 27.7253 57.2719C26.9719 57.7854 26.388 58.511 26.0475 59.3568C25.7071 60.2026 25.6255 61.1304 25.813 62.0226C26.0005 62.9148 26.4488 63.7313 27.101 64.3684C27.7531 65.0055 28.5798 65.4347 29.4761 65.6014C30.3725 65.7681 31.2981 65.6649 32.1358 65.3049C32.9734 64.9448 33.6852 64.3442 34.181 63.579C34.6768 62.8139 34.9342 61.9188 34.9207 61.0072Z" fill="#0E1E25"/>
<path id="Vector_2" d="M44.205 28.5281C43.945 29.5208 43.6148 30.0574 42.6137 29.6202C41.491 29.1232 40.3428 28.6859 39.1739 28.3101C38.1147 27.9755 37.9997 27.4826 38.4724 26.5135C38.9451 25.5444 39.4166 25.2985 40.3525 25.9162C41.3076 26.5467 42.3284 27.0778 43.3206 27.6522C43.7396 27.8951 44.1797 28.1214 44.205 28.5281Z" fill="#0E1E25"/>
<path id="Vector_3" d="M62.3268 27.1656C62.3563 27.3909 62.2995 27.6191 62.1677 27.8042C62.0359 27.9894 61.839 28.1178 61.6164 28.1637C60.3798 28.6365 59.1427 29.1092 57.9199 29.6157C57.3013 29.8719 56.8041 29.8942 56.4838 29.1967C56.4073 29.073 56.359 28.9338 56.3424 28.7893C56.3258 28.6448 56.3413 28.4984 56.3877 28.3605C56.4341 28.2227 56.5104 28.0967 56.611 27.9917C56.7117 27.8866 56.8342 27.805 56.97 27.7528C58.0517 27.1437 59.1243 26.5188 60.1881 25.8779C61.9221 24.8278 61.7298 26.6614 62.3268 27.1656Z" fill="#0E1E25"/>
<path id="Vector_4" d="M54.7457 19.644C55.4919 20.0896 56.9941 20.1274 55.8974 21.7627C55.2072 22.792 54.6216 23.8928 54.0167 24.9772C53.7303 25.491 53.3702 25.7117 52.8131 25.4464C52.3438 25.223 51.8908 24.9187 52.1128 24.3174C52.6565 22.8435 53.2509 21.3881 53.8338 19.9288C53.989 19.5416 54.3173 19.5497 54.7457 19.644Z" fill="#0E1E25"/>
<path id="Vector_5" d="M48.4166 24.3575C48.5157 25.1245 48.0202 25.3183 47.5629 25.4938C46.9728 25.7202 46.6608 25.3503 46.3953 24.8811C45.784 23.8007 45.182 22.7131 44.5201 21.6635C43.871 20.6344 44.4345 20.2268 45.284 19.8005C46.1969 19.3423 46.6252 19.6339 46.9374 20.5226C47.4029 21.8476 47.945 23.1456 48.4166 24.3575Z" fill="#0E1E25"/>
<path id="Vector_6" d="M49.2779 48.8653C54.2617 48.8646 59.2462 48.9097 64.229 48.8367C65.6963 48.8152 66.1424 49.2174 65.7775 50.6806C65.1956 53.0145 64.7131 55.3752 64.2599 57.7382C64.026 58.9577 63.5615 59.5136 62.1573 59.4976C54.9317 59.4154 47.7047 59.446 40.4783 59.4727C39.4924 59.4763 38.7906 59.2881 38.2068 58.3646C36.5216 55.6999 34.754 53.0848 32.9484 50.4995C32.0583 49.2248 32.3041 48.8374 33.8292 48.8501C38.9784 48.8926 44.1283 48.8661 49.2779 48.8653ZM50.3687 52.6416C47.4625 52.6416 44.5564 52.6414 41.6503 52.6411C40.7815 52.6406 39.9931 52.6174 40.0581 53.9132C40.118 55.1099 40.9101 54.9432 41.6265 54.9447C47.3557 54.9563 53.0851 54.9457 58.814 54.96C59.7188 54.9623 60.4745 54.935 60.4126 53.6895C60.3559 52.5497 59.5916 52.6416 58.8375 52.6415C56.0145 52.6409 53.1916 52.6409 50.3687 52.6416Z" fill="white"/>
<path id="Vector_7" d="M73.2493 56.4856C74.1592 56.5123 75.0407 56.8086 75.7819 57.3369C76.5231 57.8653 77.0908 58.6019 77.4128 59.4533C77.7348 60.3047 77.7966 61.2326 77.5905 62.1193C77.3844 63.0059 76.9196 63.8114 76.2551 64.4335C75.5906 65.0555 74.7562 65.4662 73.858 65.6135C72.9597 65.7607 72.0379 65.6378 71.2095 65.2604C70.3812 64.883 69.6836 64.2681 69.2052 63.4936C68.7268 62.7192 68.4893 61.8201 68.5226 60.9104C68.5742 59.7009 69.0982 58.5598 69.982 57.7324C70.8658 56.905 72.039 56.4574 73.2493 56.4856Z" fill="white"/>
<path id="Vector_8" d="M34.9225 61.0072C34.9426 61.9279 34.688 62.8336 34.1912 63.609C33.6945 64.3843 32.978 64.9942 32.1333 65.3608C31.2886 65.7274 30.3538 65.834 29.4482 65.6672C28.5426 65.5003 27.7071 65.0676 27.0485 64.4241C26.3898 63.7805 25.9377 62.9555 25.7498 62.054C25.562 61.1525 25.6469 60.2155 25.9937 59.3624C26.3405 58.5094 26.9335 57.7789 27.6971 57.2643C28.4607 56.7496 29.3603 56.474 30.2811 56.4727C31.4917 56.4793 32.6524 56.9558 33.5183 57.8018C34.3842 58.6478 34.8877 59.7971 34.9225 61.0072Z" fill="white"/>
<path id="Vector_9" d="M86.1759 51.4023C86.5794 51.4707 86.9835 51.5394 87.3881 51.6083C87.3814 52.7405 87.3737 53.8722 87.3651 55.0034L85.9993 55.204C85.8153 55.2885 85.613 55.3251 85.4111 55.3102C85.2092 55.2954 85.0143 55.2297 84.8447 55.1192L84.4023 54.5006C84.4034 53.836 84.4046 53.1715 84.4058 52.5069C84.567 52.4014 84.6953 52.2527 84.7761 52.0779C84.857 51.903 84.887 51.709 84.863 51.5179L86.1759 51.4023Z" fill="white"/>
<path id="Vector_10" d="M50.3729 52.6424C53.1959 52.6421 56.0188 52.6421 58.8417 52.6424C59.5959 52.6424 60.3602 52.5507 60.4168 53.6904C60.4787 54.9361 59.723 54.9632 58.8183 54.9609C53.0892 54.9466 47.3599 54.9573 41.6308 54.9456C40.9143 54.9441 40.1224 55.1108 40.0623 53.9141C39.9975 52.6185 40.7857 52.6417 41.6545 52.642C44.5607 52.6436 47.4668 52.6438 50.3729 52.6424Z" fill="#0E1E25"/>
<path id="Vector_11" d="M54.9319 40.3876C54.7994 42.2366 53.7313 43.1702 52.0618 43.3282C50.5374 43.4724 48.9784 41.8017 49.1588 40.2516C49.3571 38.5482 50.3732 37.4729 52.137 37.5465C53.8751 37.6192 54.7985 38.7064 54.9319 40.3876Z" fill="#0E1E25"/>
</g>
</g>
</svg>
