<svg width="101" height="101" viewBox="0 0 101 101" fill="none" xmlns="http://www.w3.org/2000/svg">
<g id="Tok_FireCrew">
<circle id="Ellipse 63" cx="50.4844" cy="50.6211" r="47.9295" fill="white" stroke="#0E1E25" stroke-width="4.14105"/>
<g id="Group 8590">
<path id="Vector" d="M79.2099 65.3277C74.1415 65.8811 75.9845 64.038 73.3572 68.8047C72.5963 69.775 71.5905 70.525 70.4435 70.9774C69.2964 71.4297 68.0495 71.5682 66.8311 71.3784C65.6127 71.1887 64.4669 70.6776 63.5117 69.8979C62.5565 69.1181 61.8264 68.0978 61.3966 66.9421C60.8693 65.5374 60.1883 65.3145 58.9131 65.3277C53.7747 65.3812 48.636 65.3797 43.4968 65.3231C42.2627 65.3076 41.6314 65.5673 41.1569 66.8522C40.0726 69.7882 37.8413 71.3737 34.643 71.3999C31.6272 71.4245 29.1697 69.8629 28.1392 66.8674C27.6274 65.3797 26.7928 65.3389 25.5765 65.3199C24.7769 65.3073 23.4175 65.8835 23.3405 64.5046C23.2622 63.0972 22.3721 61.2799 23.9981 60.3208C24.9058 59.7853 24.8973 59.2423 24.9022 58.5084C24.9186 56.0543 24.9825 53.5978 24.8967 51.1468C24.8272 49.1649 25.6754 48.3881 27.6248 48.401C34.3741 48.4455 41.1251 48.3462 47.873 48.4568C49.8013 48.4884 50.5969 48.1254 50.4601 45.9814C50.2722 43.0338 50.7113 42.7362 53.7632 42.749C56.9045 42.7621 60.0457 42.8515 63.1869 42.8496C63.9339 42.8492 64.8029 43.2132 65.2178 41.9546C65.6516 40.6385 69.3699 40.5522 70.1826 41.7488C70.3432 41.9852 70.2962 42.4748 70.4824 42.5654C76.5814 45.5327 76.248 51.3238 76.7448 56.7502C76.7796 57.131 76.7995 57.513 76.8264 57.8945C76.6967 58.4852 78.0804 59.1764 78.5187 59.4304C80.7631 60.73 80.3618 65.202 79.2099 65.3277ZM50.4462 55.9313C50.4462 54.9337 50.4285 53.9356 50.4523 52.9386C50.4693 52.2276 50.267 51.8646 49.4628 51.7176C44.883 51.7176 44.8813 51.584 44.883 55.2835C44.9357 56.1261 44.883 55.2835 44.883 57.8177C44.883 60.2377 45.5325 60.3326 47.44 60.2377C50.9269 60.0642 50.4076 60.5234 50.4488 57.0822C50.4532 56.6985 50.4493 56.315 50.4462 55.9313ZM61.3024 49.3727C61.2339 45.3026 61.9337 45.7733 57.6383 45.7465C57.1039 45.7432 56.5688 45.7701 56.0341 45.7685C55.3029 45.7661 54.9938 46.1126 54.8456 46.8457C54.8456 52.7785 53.7632 52.9386 59.8137 52.8888C60.8688 52.825 61.378 52.5356 61.3066 51.4353C61.2617 50.7503 61.2981 50.0604 61.3024 49.3727ZM34.7242 60.7034C33.7255 60.6938 32.7638 61.0807 32.05 61.7793C31.3362 62.4779 30.9287 63.4311 30.9169 64.4297C30.9306 65.4109 31.3314 66.347 32.0321 67.034C32.7328 67.721 33.6767 68.1033 34.658 68.0975C35.6393 68.0918 36.5785 67.6985 37.2711 67.0033C37.9638 66.3081 38.3536 65.3674 38.3557 64.3861C38.3345 63.4249 37.9466 62.508 37.2715 61.8234C36.5963 61.1388 35.6851 60.7381 34.7242 60.7034ZM67.817 68.1318C68.8196 68.1349 69.7828 67.7418 70.4969 67.0382C71.2111 66.3345 71.6185 65.3773 71.6303 64.3748C71.5986 62.435 69.7002 60.5357 67.8253 60.5679C65.9238 60.6005 64.0684 62.4332 64.0492 64.2975C64.0518 65.3021 64.4476 66.2659 65.1517 66.9824C65.8559 67.699 66.8126 68.1116 67.817 68.1318ZM64.2351 45.8379C64.0384 46.0666 64.1528 46.5188 64.1528 46.5188L64.171 47.2912L64.2076 48.8359C64.2076 48.8359 64.2076 52.2885 64.2351 52.5189C64.2889 52.97 64.9084 52.9386 65.32 52.9386C66.0387 52.9386 67.1599 52.8986 67.1599 52.8986C67.1599 52.8986 67.7448 51.6741 68.6123 51.5974C69.5573 51.5139 70.8396 52.8185 70.8396 52.8185L72.6795 52.7785C73.8537 52.1866 73.1932 51.2175 72.9896 50.4455C72.8065 49.7513 72.2984 48.1417 72.2984 48.1417C72.2984 48.1417 72.0188 45.6739 69.7642 45.6541C69.1555 45.6488 67.4604 45.6541 67.4604 45.6541H64.9084C64.9084 45.6541 64.4335 45.6071 64.2351 45.8379Z" fill="#0E1E25"/>
<path id="Vector_2" d="M33.6059 48.3061C30.946 48.3291 28.9345 46.796 28.3167 44.447C27.6471 41.9006 28.6755 39.5919 31.2139 38.3854C37.0198 35.6261 42.8629 32.945 48.6914 30.2334C51.6055 28.8777 54.5081 27.4961 57.4395 26.1787C60.1653 24.9537 62.5591 25.7979 63.8102 28.3494C65.0862 30.9519 64.191 33.4408 61.4376 34.8287C53.0333 39.0653 44.6267 43.2972 36.2179 47.5244C35.3129 47.9815 34.4209 48.3829 33.6059 48.3061ZM33.6173 45.8745C34.1983 45.6804 34.7687 45.4558 35.3261 45.2018C43.5318 41.0727 51.7229 36.9148 59.9361 32.8009C61.429 32.0532 62.4081 31.1387 61.5109 29.4014C60.6892 27.8103 59.4594 27.9491 58.0125 28.64C53.2455 30.9162 48.4394 33.1103 43.6499 35.3395C39.9012 37.0843 36.1535 38.8314 32.4068 40.5808C31.0517 41.2113 30.3952 42.2567 30.733 43.7281C31.0418 45.073 31.9936 45.7721 33.6173 45.8745Z" fill="#0E1E25"/>
<path id="Vector_3" d="M64.5795 39.0231C64.4864 39.5721 64.0589 40.1183 63.7717 40.0417C62.5633 39.7192 61.906 38.6488 61.2654 37.6853C61.0848 37.4135 61.736 36.7388 62.1 36.8527C63.2215 37.2035 63.8097 38.2539 64.5795 39.0231Z" fill="#0E1E25"/>
<path id="Vector_4" d="M66.7188 37.3076C66.9458 36.4542 66.3762 35.3199 67.7865 35.3401C69.0065 35.3574 68.8058 36.3855 68.6744 37.0022C68.504 37.8026 69.0793 39.29 67.483 39.1731C66.0948 39.0712 67.2303 37.7667 66.7188 37.3076Z" fill="#0E1E25"/>
<path id="Vector_5" d="M74.2595 37.8205C74.025 38.2915 73.683 38.7007 73.261 39.015C72.839 39.3292 72.3489 39.5397 71.8305 39.6294C71.2822 39.7154 70.99 39.3233 71.1275 39.0933C71.6317 38.1518 72.4154 37.3898 73.3706 36.9121C73.7303 36.7541 74.0893 37.3681 74.2595 37.8205Z" fill="#0E1E25"/>
<path id="Vector_6" d="M34.7252 60.6955C35.6861 60.7302 36.5974 61.1308 37.2725 61.8155C37.9477 62.5001 38.3356 63.4169 38.3568 64.3782C38.3547 65.3595 37.9648 66.3002 37.2722 66.9954C36.5796 67.6905 35.6403 68.0838 34.659 68.0896C33.6777 68.0953 32.7339 67.7131 32.0332 67.0261C31.3325 66.3391 30.9316 65.403 30.918 64.4218C30.9298 63.4231 31.3373 62.4699 32.0511 61.7713C32.7648 61.0728 33.7265 60.6859 34.7252 60.6955Z" fill="white"/>
<path id="Vector_7" d="M33.6165 45.8746C31.9929 45.7722 31.0412 45.0732 30.7321 43.7279C30.3943 42.2565 31.0507 41.2111 32.4059 40.5806C36.1549 38.8362 39.9026 37.0891 43.649 35.3393C48.4385 33.1102 53.2446 30.916 58.0116 28.6398C59.4584 27.9489 60.6883 27.8101 61.51 29.4012C62.4072 31.1385 61.4281 32.053 59.9352 32.8007C51.722 36.9146 43.5309 41.0725 35.3252 45.2016C34.7678 45.4557 34.1975 45.6804 33.6165 45.8746Z" fill="white"/>
<path id="Vector_8" d="M68.1209 50.8437C66.902 50.8977 66.2046 50.1541 66.207 48.9177C66.2094 47.718 66.8882 46.8656 68.1773 46.8368C69.5476 46.8062 70.319 47.5635 70.3491 48.9422C70.3798 50.3455 69.4109 50.7203 68.1209 50.8437Z" fill="#0E1E25"/>
</g>
</g>
</svg>
